<mxfile host="app.diagrams.net" modified="2023-06-13T10:42:14.652Z" agent="Mozilla/5.0 (Windows NT 10.0; Win64; x64) AppleWebKit/537.36 (KHTML, like Gecko) Chrome/114.0.0.0 Safari/537.36" etag="pwtY65i6UHY5eXKp5eIJ" version="21.3.8" type="device">
  <diagram name="Strona-1" id="aD-myEdSrsHP4SViBXeT">
    <mxGraphModel dx="2049" dy="1898" grid="1" gridSize="10" guides="1" tooltips="1" connect="1" arrows="1" fold="1" page="1" pageScale="1" pageWidth="827" pageHeight="1169" math="0" shadow="0">
      <root>
        <mxCell id="0" />
        <mxCell id="1" parent="0" />
        <mxCell id="Wzpx3cl2IygxgbNi_JaD-42" style="rounded=0;orthogonalLoop=1;jettySize=auto;html=1;entryX=0;entryY=0.5;entryDx=0;entryDy=0;entryPerimeter=0;" parent="1" source="Wzpx3cl2IygxgbNi_JaD-4" target="Wzpx3cl2IygxgbNi_JaD-1" edge="1">
          <mxGeometry relative="1" as="geometry" />
        </mxCell>
        <mxCell id="Wzpx3cl2IygxgbNi_JaD-47" style="rounded=0;orthogonalLoop=1;jettySize=auto;html=1;exitX=0.91;exitY=0;exitDx=0;exitDy=0;exitPerimeter=0;entryX=0;entryY=0.5;entryDx=0;entryDy=0;edgeStyle=orthogonalEdgeStyle;" parent="1" source="Wzpx3cl2IygxgbNi_JaD-1" target="Wzpx3cl2IygxgbNi_JaD-33" edge="1">
          <mxGeometry relative="1" as="geometry" />
        </mxCell>
        <mxCell id="Wzpx3cl2IygxgbNi_JaD-48" style="edgeStyle=orthogonalEdgeStyle;rounded=0;orthogonalLoop=1;jettySize=auto;html=1;exitX=0.91;exitY=1;exitDx=0;exitDy=0;exitPerimeter=0;entryX=0;entryY=0.5;entryDx=0;entryDy=0;" parent="1" source="Wzpx3cl2IygxgbNi_JaD-1" target="Wzpx3cl2IygxgbNi_JaD-37" edge="1">
          <mxGeometry relative="1" as="geometry" />
        </mxCell>
        <mxCell id="Wzpx3cl2IygxgbNi_JaD-1" value="" style="verticalLabelPosition=bottom;html=1;verticalAlign=top;align=center;strokeColor=none;fillColor=#00BEF2;shape=mxgraph.azure.queue_generic;pointerEvents=1;" parent="1" vertex="1">
          <mxGeometry x="520" y="69" width="150" height="40" as="geometry" />
        </mxCell>
        <mxCell id="Wzpx3cl2IygxgbNi_JaD-44" style="rounded=0;orthogonalLoop=1;jettySize=auto;html=1;entryX=0;entryY=0.5;entryDx=0;entryDy=0;entryPerimeter=0;" parent="1" source="Wzpx3cl2IygxgbNi_JaD-4" target="Wzpx3cl2IygxgbNi_JaD-2" edge="1">
          <mxGeometry relative="1" as="geometry" />
        </mxCell>
        <mxCell id="Wzpx3cl2IygxgbNi_JaD-49" style="edgeStyle=orthogonalEdgeStyle;rounded=0;orthogonalLoop=1;jettySize=auto;html=1;exitX=1;exitY=0.51;exitDx=0;exitDy=0;exitPerimeter=0;entryX=0;entryY=0.5;entryDx=0;entryDy=0;" parent="1" source="Wzpx3cl2IygxgbNi_JaD-2" target="Wzpx3cl2IygxgbNi_JaD-37" edge="1">
          <mxGeometry relative="1" as="geometry">
            <mxPoint x="820" y="160.00000000000023" as="targetPoint" />
          </mxGeometry>
        </mxCell>
        <mxCell id="Wzpx3cl2IygxgbNi_JaD-2" value="" style="verticalLabelPosition=bottom;html=1;verticalAlign=top;align=center;strokeColor=none;fillColor=#00BEF2;shape=mxgraph.azure.queue_generic;pointerEvents=1;" parent="1" vertex="1">
          <mxGeometry x="520" y="210" width="150" height="40" as="geometry" />
        </mxCell>
        <mxCell id="Wzpx3cl2IygxgbNi_JaD-41" style="rounded=0;orthogonalLoop=1;jettySize=auto;html=1;entryX=0;entryY=0.5;entryDx=0;entryDy=0;entryPerimeter=0;" parent="1" source="Wzpx3cl2IygxgbNi_JaD-4" target="Wzpx3cl2IygxgbNi_JaD-3" edge="1">
          <mxGeometry relative="1" as="geometry" />
        </mxCell>
        <mxCell id="Wzpx3cl2IygxgbNi_JaD-3" value="" style="verticalLabelPosition=bottom;html=1;verticalAlign=top;align=center;strokeColor=none;fillColor=#00BEF2;shape=mxgraph.azure.queue_generic;pointerEvents=1;" parent="1" vertex="1">
          <mxGeometry x="520" y="-80" width="150" height="40" as="geometry" />
        </mxCell>
        <mxCell id="Wzpx3cl2IygxgbNi_JaD-4" value="" style="sketch=0;outlineConnect=0;fontColor=#232F3E;gradientColor=none;fillColor=#4D27AA;strokeColor=none;dashed=0;verticalLabelPosition=bottom;verticalAlign=top;align=center;html=1;fontSize=12;fontStyle=0;aspect=fixed;pointerEvents=1;shape=mxgraph.aws4.customer_gateway;" parent="1" vertex="1">
          <mxGeometry x="309.5" y="50" width="78" height="78" as="geometry" />
        </mxCell>
        <mxCell id="Wzpx3cl2IygxgbNi_JaD-10" value="&lt;font style=&quot;font-size: 23px;&quot;&gt;Direct Exchange&lt;/font&gt;" style="text;html=1;strokeColor=none;fillColor=none;align=center;verticalAlign=middle;whiteSpace=wrap;rounded=0;" parent="1" vertex="1">
          <mxGeometry x="283" width="131" height="30" as="geometry" />
        </mxCell>
        <mxCell id="Wzpx3cl2IygxgbNi_JaD-11" value="&lt;font style=&quot;font-size: 23px;&quot;&gt;Passengers&lt;/font&gt;" style="text;html=1;strokeColor=none;fillColor=none;align=center;verticalAlign=middle;whiteSpace=wrap;rounded=0;" parent="1" vertex="1">
          <mxGeometry x="520" y="-120" width="131" height="30" as="geometry" />
        </mxCell>
        <mxCell id="Wzpx3cl2IygxgbNi_JaD-12" value="&lt;font style=&quot;font-size: 23px;&quot;&gt;Cargo&lt;/font&gt;" style="text;html=1;strokeColor=none;fillColor=none;align=center;verticalAlign=middle;whiteSpace=wrap;rounded=0;" parent="1" vertex="1">
          <mxGeometry x="520" y="30" width="131" height="30" as="geometry" />
        </mxCell>
        <mxCell id="Wzpx3cl2IygxgbNi_JaD-13" value="&lt;font style=&quot;font-size: 23px;&quot;&gt;Satellites&lt;/font&gt;" style="text;html=1;strokeColor=none;fillColor=none;align=center;verticalAlign=middle;whiteSpace=wrap;rounded=0;" parent="1" vertex="1">
          <mxGeometry x="520" y="169" width="131" height="30" as="geometry" />
        </mxCell>
        <mxCell id="Wzpx3cl2IygxgbNi_JaD-23" value="" style="group" parent="1" vertex="1" connectable="0">
          <mxGeometry x="9.630000000000003" y="-80" width="111.75" height="60" as="geometry" />
        </mxCell>
        <mxCell id="Wzpx3cl2IygxgbNi_JaD-19" value="" style="verticalLabelPosition=bottom;html=1;verticalAlign=top;align=center;strokeColor=none;fillColor=#00BEF2;shape=mxgraph.azure.queue_generic;pointerEvents=1;flipH=1;" parent="Wzpx3cl2IygxgbNi_JaD-23" vertex="1">
          <mxGeometry x="10.879999999999999" y="30" width="90" height="30" as="geometry" />
        </mxCell>
        <mxCell id="Wzpx3cl2IygxgbNi_JaD-20" value="&lt;font style=&quot;font-size: 14px;&quot;&gt;Callback Queue&lt;/font&gt;" style="text;html=1;strokeColor=none;fillColor=none;align=center;verticalAlign=middle;whiteSpace=wrap;rounded=0;" parent="Wzpx3cl2IygxgbNi_JaD-23" vertex="1">
          <mxGeometry width="111.75" height="30" as="geometry" />
        </mxCell>
        <mxCell id="Wzpx3cl2IygxgbNi_JaD-24" value="" style="group" parent="1" vertex="1" connectable="0">
          <mxGeometry y="9" width="131" height="60" as="geometry" />
        </mxCell>
        <mxCell id="Wzpx3cl2IygxgbNi_JaD-14" value="" style="rounded=1;whiteSpace=wrap;html=1;" parent="Wzpx3cl2IygxgbNi_JaD-24" vertex="1">
          <mxGeometry x="5.5" width="120" height="60" as="geometry" />
        </mxCell>
        <mxCell id="Wzpx3cl2IygxgbNi_JaD-17" value="&lt;font style=&quot;font-size: 23px;&quot;&gt;Producer&lt;/font&gt;" style="text;html=1;strokeColor=none;fillColor=none;align=center;verticalAlign=middle;whiteSpace=wrap;rounded=0;" parent="Wzpx3cl2IygxgbNi_JaD-24" vertex="1">
          <mxGeometry y="15" width="131" height="30" as="geometry" />
        </mxCell>
        <mxCell id="Wzpx3cl2IygxgbNi_JaD-25" value="" style="group" parent="1" vertex="1" connectable="0">
          <mxGeometry x="9.630000000000004" y="160" width="111.75" height="60" as="geometry" />
        </mxCell>
        <mxCell id="Wzpx3cl2IygxgbNi_JaD-26" value="" style="verticalLabelPosition=bottom;html=1;verticalAlign=top;align=center;strokeColor=none;fillColor=#00BEF2;shape=mxgraph.azure.queue_generic;pointerEvents=1;flipH=1;" parent="Wzpx3cl2IygxgbNi_JaD-25" vertex="1">
          <mxGeometry x="10.879999999999999" y="30" width="90" height="30" as="geometry" />
        </mxCell>
        <mxCell id="Wzpx3cl2IygxgbNi_JaD-27" value="&lt;font style=&quot;font-size: 14px;&quot;&gt;Callback Queue&lt;/font&gt;" style="text;html=1;strokeColor=none;fillColor=none;align=center;verticalAlign=middle;whiteSpace=wrap;rounded=0;" parent="Wzpx3cl2IygxgbNi_JaD-25" vertex="1">
          <mxGeometry width="111.75" height="30" as="geometry" />
        </mxCell>
        <mxCell id="Wzpx3cl2IygxgbNi_JaD-28" value="" style="group" parent="1" vertex="1" connectable="0">
          <mxGeometry y="90" width="131" height="60" as="geometry" />
        </mxCell>
        <mxCell id="Wzpx3cl2IygxgbNi_JaD-29" value="" style="rounded=1;whiteSpace=wrap;html=1;" parent="Wzpx3cl2IygxgbNi_JaD-28" vertex="1">
          <mxGeometry x="5.5" width="120" height="60" as="geometry" />
        </mxCell>
        <mxCell id="Wzpx3cl2IygxgbNi_JaD-30" value="&lt;font style=&quot;font-size: 23px;&quot;&gt;Producer&lt;/font&gt;" style="text;html=1;strokeColor=none;fillColor=none;align=center;verticalAlign=middle;whiteSpace=wrap;rounded=0;" parent="Wzpx3cl2IygxgbNi_JaD-28" vertex="1">
          <mxGeometry y="15" width="131" height="30" as="geometry" />
        </mxCell>
        <mxCell id="Wzpx3cl2IygxgbNi_JaD-31" value="" style="group" parent="1" vertex="1" connectable="0">
          <mxGeometry x="827" y="-15" width="131" height="60" as="geometry" />
        </mxCell>
        <mxCell id="Wzpx3cl2IygxgbNi_JaD-32" value="" style="rounded=1;whiteSpace=wrap;html=1;" parent="Wzpx3cl2IygxgbNi_JaD-31" vertex="1">
          <mxGeometry x="5.5" width="120" height="60" as="geometry" />
        </mxCell>
        <mxCell id="Wzpx3cl2IygxgbNi_JaD-33" value="&lt;font style=&quot;font-size: 23px;&quot;&gt;Consumer&lt;/font&gt;" style="text;html=1;strokeColor=none;fillColor=none;align=center;verticalAlign=middle;whiteSpace=wrap;rounded=0;" parent="Wzpx3cl2IygxgbNi_JaD-31" vertex="1">
          <mxGeometry y="15" width="131" height="30" as="geometry" />
        </mxCell>
        <mxCell id="Wzpx3cl2IygxgbNi_JaD-35" value="" style="group" parent="1" vertex="1" connectable="0">
          <mxGeometry x="827" y="130" width="131" height="60" as="geometry" />
        </mxCell>
        <mxCell id="Wzpx3cl2IygxgbNi_JaD-36" value="" style="rounded=1;whiteSpace=wrap;html=1;" parent="Wzpx3cl2IygxgbNi_JaD-35" vertex="1">
          <mxGeometry x="5.5" width="120" height="60" as="geometry" />
        </mxCell>
        <mxCell id="Wzpx3cl2IygxgbNi_JaD-55" style="edgeStyle=orthogonalEdgeStyle;rounded=0;orthogonalLoop=1;jettySize=auto;html=1;exitX=1;exitY=0.25;exitDx=0;exitDy=0;fillColor=#60a917;strokeColor=#2D7600;" parent="Wzpx3cl2IygxgbNi_JaD-35" source="Wzpx3cl2IygxgbNi_JaD-36" edge="1">
          <mxGeometry relative="1" as="geometry">
            <mxPoint x="63" y="-260" as="targetPoint" />
            <Array as="points">
              <mxPoint x="173" y="15" />
              <mxPoint x="173" y="-260" />
            </Array>
          </mxGeometry>
        </mxCell>
        <mxCell id="Wzpx3cl2IygxgbNi_JaD-37" value="&lt;font style=&quot;font-size: 23px;&quot;&gt;Consumer&lt;/font&gt;" style="text;html=1;strokeColor=none;fillColor=none;align=center;verticalAlign=middle;whiteSpace=wrap;rounded=0;" parent="Wzpx3cl2IygxgbNi_JaD-35" vertex="1">
          <mxGeometry x="5.5" y="15" width="120" height="30" as="geometry" />
        </mxCell>
        <mxCell id="Wzpx3cl2IygxgbNi_JaD-39" style="rounded=0;orthogonalLoop=1;jettySize=auto;html=1;exitX=1;exitY=0.5;exitDx=0;exitDy=0;" parent="1" source="Wzpx3cl2IygxgbNi_JaD-17" target="Wzpx3cl2IygxgbNi_JaD-4" edge="1">
          <mxGeometry relative="1" as="geometry" />
        </mxCell>
        <mxCell id="Wzpx3cl2IygxgbNi_JaD-40" style="rounded=0;orthogonalLoop=1;jettySize=auto;html=1;exitX=1;exitY=0.5;exitDx=0;exitDy=0;" parent="1" source="Wzpx3cl2IygxgbNi_JaD-30" target="Wzpx3cl2IygxgbNi_JaD-4" edge="1">
          <mxGeometry relative="1" as="geometry">
            <mxPoint x="141" y="10" as="sourcePoint" />
            <mxPoint x="320" y="83" as="targetPoint" />
          </mxGeometry>
        </mxCell>
        <mxCell id="Wzpx3cl2IygxgbNi_JaD-46" style="rounded=0;orthogonalLoop=1;jettySize=auto;html=1;exitX=1;exitY=0.51;exitDx=0;exitDy=0;entryX=0;entryY=0.5;entryDx=0;entryDy=0;strokeColor=default;exitPerimeter=0;edgeStyle=orthogonalEdgeStyle;" parent="1" source="Wzpx3cl2IygxgbNi_JaD-3" target="Wzpx3cl2IygxgbNi_JaD-33" edge="1">
          <mxGeometry relative="1" as="geometry" />
        </mxCell>
        <mxCell id="Wzpx3cl2IygxgbNi_JaD-51" style="edgeStyle=orthogonalEdgeStyle;rounded=0;orthogonalLoop=1;jettySize=auto;html=1;exitX=0.5;exitY=0;exitDx=0;exitDy=0;entryX=0;entryY=0.5;entryDx=0;entryDy=0;entryPerimeter=0;fillColor=#60a917;strokeColor=#2D7600;" parent="1" source="Wzpx3cl2IygxgbNi_JaD-32" target="Wzpx3cl2IygxgbNi_JaD-19" edge="1">
          <mxGeometry relative="1" as="geometry">
            <Array as="points">
              <mxPoint x="893" y="-130" />
              <mxPoint x="110" y="-130" />
            </Array>
          </mxGeometry>
        </mxCell>
        <mxCell id="Wzpx3cl2IygxgbNi_JaD-52" style="edgeStyle=orthogonalEdgeStyle;rounded=0;orthogonalLoop=1;jettySize=auto;html=1;exitX=0.5;exitY=1;exitDx=0;exitDy=0;entryX=0;entryY=0.5;entryDx=0;entryDy=0;entryPerimeter=0;fillColor=#d80073;strokeColor=#A50040;" parent="1" source="Wzpx3cl2IygxgbNi_JaD-36" target="Wzpx3cl2IygxgbNi_JaD-26" edge="1">
          <mxGeometry relative="1" as="geometry">
            <Array as="points">
              <mxPoint x="893" y="290" />
              <mxPoint x="111" y="290" />
            </Array>
          </mxGeometry>
        </mxCell>
        <mxCell id="Wzpx3cl2IygxgbNi_JaD-54" style="edgeStyle=orthogonalEdgeStyle;rounded=0;orthogonalLoop=1;jettySize=auto;html=1;exitX=1;exitY=0.75;exitDx=0;exitDy=0;fillColor=#d80073;strokeColor=#A50040;" parent="1" source="Wzpx3cl2IygxgbNi_JaD-32" edge="1">
          <mxGeometry relative="1" as="geometry">
            <mxPoint x="750" y="290" as="targetPoint" />
            <Array as="points">
              <mxPoint x="980" y="30" />
              <mxPoint x="980" y="290" />
            </Array>
          </mxGeometry>
        </mxCell>
        <mxCell id="Wzpx3cl2IygxgbNi_JaD-67" style="edgeStyle=orthogonalEdgeStyle;rounded=0;orthogonalLoop=1;jettySize=auto;html=1;exitX=1;exitY=0.5;exitDx=0;exitDy=0;" parent="1" source="Wzpx3cl2IygxgbNi_JaD-60" target="Wzpx3cl2IygxgbNi_JaD-64" edge="1">
          <mxGeometry relative="1" as="geometry" />
        </mxCell>
        <mxCell id="Wzpx3cl2IygxgbNi_JaD-60" value="&lt;font style=&quot;font-size: 26px;&quot;&gt;Admin&lt;/font&gt;" style="rounded=1;whiteSpace=wrap;html=1;" parent="1" vertex="1">
          <mxGeometry x="620" y="400" width="120" height="60" as="geometry" />
        </mxCell>
        <mxCell id="Wzpx3cl2IygxgbNi_JaD-62" style="edgeStyle=orthogonalEdgeStyle;rounded=0;orthogonalLoop=1;jettySize=auto;html=1;exitX=1;exitY=0.51;exitDx=0;exitDy=0;exitPerimeter=0;entryX=0;entryY=0.5;entryDx=0;entryDy=0;" parent="1" source="Wzpx3cl2IygxgbNi_JaD-61" target="Wzpx3cl2IygxgbNi_JaD-60" edge="1">
          <mxGeometry relative="1" as="geometry" />
        </mxCell>
        <mxCell id="Wzpx3cl2IygxgbNi_JaD-63" style="edgeStyle=orthogonalEdgeStyle;rounded=0;orthogonalLoop=1;jettySize=auto;html=1;entryX=0;entryY=0.5;entryDx=0;entryDy=0;entryPerimeter=0;" parent="1" source="Wzpx3cl2IygxgbNi_JaD-4" target="Wzpx3cl2IygxgbNi_JaD-61" edge="1">
          <mxGeometry relative="1" as="geometry">
            <Array as="points">
              <mxPoint x="349" y="430" />
            </Array>
          </mxGeometry>
        </mxCell>
        <mxCell id="Wzpx3cl2IygxgbNi_JaD-61" value="" style="verticalLabelPosition=bottom;html=1;verticalAlign=top;align=center;strokeColor=none;fillColor=#00BEF2;shape=mxgraph.azure.queue_generic;pointerEvents=1;" parent="1" vertex="1">
          <mxGeometry x="400" y="410" width="150" height="40" as="geometry" />
        </mxCell>
        <mxCell id="Wzpx3cl2IygxgbNi_JaD-66" value="" style="group" parent="1" vertex="1" connectable="0">
          <mxGeometry x="880" y="340" width="131" height="128" as="geometry" />
        </mxCell>
        <mxCell id="Wzpx3cl2IygxgbNi_JaD-64" value="" style="sketch=0;outlineConnect=0;fontColor=#232F3E;gradientColor=none;fillColor=#4D27AA;strokeColor=none;dashed=0;verticalLabelPosition=bottom;verticalAlign=top;align=center;html=1;fontSize=12;fontStyle=0;aspect=fixed;pointerEvents=1;shape=mxgraph.aws4.customer_gateway;" parent="Wzpx3cl2IygxgbNi_JaD-66" vertex="1">
          <mxGeometry x="26.5" y="50" width="78" height="78" as="geometry" />
        </mxCell>
        <mxCell id="Wzpx3cl2IygxgbNi_JaD-65" value="&lt;font style=&quot;font-size: 23px;&quot;&gt;Fanout Exchange&lt;/font&gt;" style="text;html=1;strokeColor=none;fillColor=none;align=center;verticalAlign=middle;whiteSpace=wrap;rounded=0;" parent="Wzpx3cl2IygxgbNi_JaD-66" vertex="1">
          <mxGeometry width="131" height="30" as="geometry" />
        </mxCell>
        <mxCell id="Wzpx3cl2IygxgbNi_JaD-69" style="edgeStyle=orthogonalEdgeStyle;rounded=0;orthogonalLoop=1;jettySize=auto;html=1;entryX=0.5;entryY=1;entryDx=0;entryDy=0;entryPerimeter=0;" parent="1" source="Wzpx3cl2IygxgbNi_JaD-64" target="Wzpx3cl2IygxgbNi_JaD-26" edge="1">
          <mxGeometry relative="1" as="geometry">
            <Array as="points">
              <mxPoint x="946" y="520" />
              <mxPoint x="66" y="520" />
            </Array>
          </mxGeometry>
        </mxCell>
        <mxCell id="Wzpx3cl2IygxgbNi_JaD-70" style="edgeStyle=orthogonalEdgeStyle;rounded=0;orthogonalLoop=1;jettySize=auto;html=1;entryX=1;entryY=0.51;entryDx=0;entryDy=0;entryPerimeter=0;" parent="1" source="Wzpx3cl2IygxgbNi_JaD-64" target="Wzpx3cl2IygxgbNi_JaD-19" edge="1">
          <mxGeometry relative="1" as="geometry">
            <Array as="points">
              <mxPoint x="946" y="480" />
              <mxPoint x="-30" y="480" />
              <mxPoint x="-30" y="-35" />
            </Array>
          </mxGeometry>
        </mxCell>
        <mxCell id="Wzpx3cl2IygxgbNi_JaD-71" value="&lt;font style=&quot;font-size: 18px;&quot;&gt;Passengers&lt;/font&gt;" style="text;html=1;strokeColor=none;fillColor=none;align=center;verticalAlign=middle;whiteSpace=wrap;rounded=0;" parent="1" vertex="1">
          <mxGeometry x="410" y="-50" width="60" height="30" as="geometry" />
        </mxCell>
        <mxCell id="Wzpx3cl2IygxgbNi_JaD-73" value="&lt;font style=&quot;font-size: 18px;&quot;&gt;Cargo&lt;/font&gt;" style="text;html=1;strokeColor=none;fillColor=none;align=center;verticalAlign=middle;whiteSpace=wrap;rounded=0;" parent="1" vertex="1">
          <mxGeometry x="430" y="50" width="60" height="30" as="geometry" />
        </mxCell>
        <mxCell id="Wzpx3cl2IygxgbNi_JaD-74" value="&lt;font style=&quot;font-size: 18px;&quot;&gt;Satellites&lt;/font&gt;" style="text;html=1;strokeColor=none;fillColor=none;align=center;verticalAlign=middle;whiteSpace=wrap;rounded=0;" parent="1" vertex="1">
          <mxGeometry x="390" y="180" width="60" height="30" as="geometry" />
        </mxCell>
        <mxCell id="Wzpx3cl2IygxgbNi_JaD-75" value="&lt;font style=&quot;font-size: 18px;&quot;&gt;Satellites&lt;/font&gt;" style="text;html=1;strokeColor=none;fillColor=none;align=center;verticalAlign=middle;whiteSpace=wrap;rounded=0;" parent="1" vertex="1">
          <mxGeometry x="260" y="380" width="60" height="30" as="geometry" />
        </mxCell>
        <mxCell id="Wzpx3cl2IygxgbNi_JaD-76" value="&lt;font style=&quot;font-size: 18px;&quot;&gt;Cargo&lt;/font&gt;" style="text;html=1;strokeColor=none;fillColor=none;align=center;verticalAlign=middle;whiteSpace=wrap;rounded=0;" parent="1" vertex="1">
          <mxGeometry x="260" y="350" width="60" height="30" as="geometry" />
        </mxCell>
        <mxCell id="Wzpx3cl2IygxgbNi_JaD-77" value="&lt;font style=&quot;font-size: 18px;&quot;&gt;Passengers&lt;/font&gt;" style="text;html=1;strokeColor=none;fillColor=none;align=center;verticalAlign=middle;whiteSpace=wrap;rounded=0;" parent="1" vertex="1">
          <mxGeometry x="260" y="320" width="60" height="30" as="geometry" />
        </mxCell>
        <mxCell id="Wzpx3cl2IygxgbNi_JaD-78" value="" style="group" parent="1" vertex="1" connectable="0">
          <mxGeometry x="1040" y="-30" width="111.75" height="60" as="geometry" />
        </mxCell>
        <mxCell id="Wzpx3cl2IygxgbNi_JaD-79" value="" style="verticalLabelPosition=bottom;html=1;verticalAlign=top;align=center;strokeColor=none;fillColor=#00BEF2;shape=mxgraph.azure.queue_generic;pointerEvents=1;flipH=1;" parent="Wzpx3cl2IygxgbNi_JaD-78" vertex="1">
          <mxGeometry x="10.879999999999999" y="30" width="90" height="30" as="geometry" />
        </mxCell>
        <mxCell id="Wzpx3cl2IygxgbNi_JaD-80" value="&lt;font style=&quot;font-size: 14px;&quot;&gt;Private Queue&lt;/font&gt;" style="text;html=1;strokeColor=none;fillColor=none;align=center;verticalAlign=middle;whiteSpace=wrap;rounded=0;" parent="Wzpx3cl2IygxgbNi_JaD-78" vertex="1">
          <mxGeometry width="111.75" height="30" as="geometry" />
        </mxCell>
        <mxCell id="Wzpx3cl2IygxgbNi_JaD-88" style="edgeStyle=orthogonalEdgeStyle;rounded=0;orthogonalLoop=1;jettySize=auto;html=1;exitX=1;exitY=0.51;exitDx=0;exitDy=0;exitPerimeter=0;entryX=1;entryY=0.5;entryDx=0;entryDy=0;" parent="1" source="Wzpx3cl2IygxgbNi_JaD-83" target="Wzpx3cl2IygxgbNi_JaD-37" edge="1">
          <mxGeometry relative="1" as="geometry" />
        </mxCell>
        <mxCell id="Wzpx3cl2IygxgbNi_JaD-83" value="" style="verticalLabelPosition=bottom;html=1;verticalAlign=top;align=center;strokeColor=none;fillColor=#00BEF2;shape=mxgraph.azure.queue_generic;pointerEvents=1;flipH=1;" parent="1" vertex="1">
          <mxGeometry x="1050.8799999999999" y="145" width="90" height="30" as="geometry" />
        </mxCell>
        <mxCell id="Wzpx3cl2IygxgbNi_JaD-84" value="&lt;font style=&quot;font-size: 14px;&quot;&gt;Private Queue&lt;/font&gt;" style="text;html=1;strokeColor=none;fillColor=none;align=center;verticalAlign=middle;whiteSpace=wrap;rounded=0;" parent="1" vertex="1">
          <mxGeometry x="1040" y="110" width="111.75" height="30" as="geometry" />
        </mxCell>
        <mxCell id="Wzpx3cl2IygxgbNi_JaD-85" style="edgeStyle=orthogonalEdgeStyle;rounded=0;orthogonalLoop=1;jettySize=auto;html=1;entryX=0;entryY=0.5;entryDx=0;entryDy=0;entryPerimeter=0;" parent="1" source="Wzpx3cl2IygxgbNi_JaD-64" target="Wzpx3cl2IygxgbNi_JaD-83" edge="1">
          <mxGeometry relative="1" as="geometry" />
        </mxCell>
        <mxCell id="Wzpx3cl2IygxgbNi_JaD-86" style="edgeStyle=orthogonalEdgeStyle;rounded=0;orthogonalLoop=1;jettySize=auto;html=1;entryX=0;entryY=0.5;entryDx=0;entryDy=0;entryPerimeter=0;" parent="1" source="Wzpx3cl2IygxgbNi_JaD-64" target="Wzpx3cl2IygxgbNi_JaD-79" edge="1">
          <mxGeometry relative="1" as="geometry">
            <Array as="points">
              <mxPoint x="1210" y="429" />
              <mxPoint x="1210" y="15" />
            </Array>
          </mxGeometry>
        </mxCell>
        <mxCell id="Wzpx3cl2IygxgbNi_JaD-87" style="edgeStyle=orthogonalEdgeStyle;rounded=0;orthogonalLoop=1;jettySize=auto;html=1;exitX=1;exitY=0.51;exitDx=0;exitDy=0;exitPerimeter=0;entryX=1;entryY=0.5;entryDx=0;entryDy=0;" parent="1" source="Wzpx3cl2IygxgbNi_JaD-79" target="Wzpx3cl2IygxgbNi_JaD-33" edge="1">
          <mxGeometry relative="1" as="geometry" />
        </mxCell>
        <mxCell id="Wzpx3cl2IygxgbNi_JaD-90" value="&lt;font style=&quot;font-size: 18px;&quot;&gt;*.carter&lt;/font&gt;" style="text;html=1;strokeColor=none;fillColor=none;align=center;verticalAlign=middle;whiteSpace=wrap;rounded=0;" parent="1" vertex="1">
          <mxGeometry x="1040" y="389" width="60" height="30" as="geometry" />
        </mxCell>
        <mxCell id="Wzpx3cl2IygxgbNi_JaD-91" value="&lt;font style=&quot;font-size: 18px;&quot;&gt;agency.*&lt;/font&gt;" style="text;html=1;strokeColor=none;fillColor=none;align=center;verticalAlign=middle;whiteSpace=wrap;rounded=0;" parent="1" vertex="1">
          <mxGeometry x="960" y="490" width="60" height="30" as="geometry" />
        </mxCell>
      </root>
    </mxGraphModel>
  </diagram>
</mxfile>
